<svg xmlns="http://www.w3.org/2000/svg" viewBox="0 0 100 100" width="100" height="100">
  <defs>
    <style>
      .growth-form { fill: #3f51b5; }

      @media (prefers-color-scheme: dark) {
        .growth-form { fill: #7986cb; }
      }
    </style>
  </defs>

  <!-- Single bold gesture: upward growth with branching implied through negative space -->
  <path class="growth-form" d="
    M 50 95
    C 48 95, 46 93, 46 90
    L 46 65
    C 46 62, 44 60, 41 58
    C 35 54, 30 48, 28 40
    C 27 36, 27 32, 29 29
    C 30 27, 32 26, 35 27
    C 37 28, 38 30, 39 32
    C 41 37, 44 42, 48 45
    L 48 35
    C 48 32, 46 28, 43 24
    C 38 18, 34 12, 33 6
    C 32.5 3, 33 1, 35 0.5
    C 37 0, 39 1, 40 3
    C 42 7, 44 11, 46.5 15
    C 48 17.5, 49 20, 50 22.5
    C 51 20, 52 17.5, 53.5 15
    C 56 11, 58 7, 60 3
    C 61 1, 63 0, 65 0.5
    C 67 1, 67.5 3, 67 6
    C 66 12, 62 18, 57 24
    C 54 28, 52 32, 52 35
    L 52 45
    C 56 42, 59 37, 61 32
    C 62 30, 63 28, 65 27
    C 68 26, 70 27, 71 29
    C 73 32, 73 36, 72 40
    C 70 48, 65 54, 59 58
    C 56 60, 54 62, 54 65
    L 54 90
    C 54 93, 52 95, 50 95
    Z
  "/>
</svg>
