<svg xmlns="http://www.w3.org/2000/svg" viewBox="0 0 100 100" width="100" height="100">
  <defs>
    <style>
      .layer-back { fill: #3f51b5; opacity: 0.4; }
      .layer-mid { fill: #00897b; opacity: 0.65; }
      .layer-front { fill: #00bcd4; opacity: 1; }

      @media (prefers-color-scheme: dark) {
        .layer-back { fill: #5c6bc0; opacity: 0.35; }
        .layer-mid { fill: #26a69a; opacity: 0.6; }
        .layer-front { fill: #4dd0e1; opacity: 0.95; }
      }
    </style>
  </defs>

  <!-- Back layer: Largest, most abstract (infrastructure/hardware layer) -->
  <path class="layer-back" d="
    M 50 90
    L 45 75
    L 38 76
    L 32 60
    L 25 62
    L 20 45
    L 15 47
    L 12 35
    L 8 37
    L 5 25
    L 2 27
    L 1 20
    L 3 12
    L 1 8
    L 8 8
    L 10 15
    L 15 13
    L 18 25
    L 22 23
    L 25 32
    L 30 30
    L 34 42
    L 40 40
    L 43 50
    L 48 48
    L 50 58
    L 52 48
    L 57 50
    L 60 40
    L 66 42
    L 70 30
    L 75 32
    L 78 23
    L 82 25
    L 85 13
    L 90 15
    L 92 8
    L 99 8
    L 97 12
    L 99 20
    L 98 27
    L 95 25
    L 92 37
    L 88 35
    L 85 47
    L 80 45
    L 75 62
    L 68 60
    L 62 76
    L 55 75
    Z
  "/>

  <!-- Middle layer: Medium scale (OS/middleware layer) -->
  <path class="layer-mid" d="
    M 50 88
    L 46 76
    L 40 77
    L 35 62
    L 30 64
    L 26 50
    L 22 52
    L 19 40
    L 16 42
    L 14 32
    L 12 34
    L 11 28
    L 13 22
    L 12 18
    L 16 18
    L 17 24
    L 20 22
    L 22 28
    L 25 26
    L 27 32
    L 31 30
    L 34 38
    L 38 36
    L 40 42
    L 44 40
    L 46 46
    L 49 44
    L 50 50
    L 51 44
    L 54 46
    L 56 40
    L 60 42
    L 62 36
    L 66 38
    L 69 30
    L 73 32
    L 75 26
    L 78 28
    L 80 22
    L 83 24
    L 84 18
    L 88 18
    L 87 22
    L 89 28
    L 88 34
    L 86 32
    L 84 42
    L 81 40
    L 78 52
    L 74 50
    L 70 64
    L 65 62
    L 60 77
    L 54 76
    Z
  "/>

  <!-- Front layer: Smallest, most defined (application/user layer) -->
  <path class="layer-front" d="
    M 50 85
    L 47 77
    L 43 78
    L 40 68
    L 37 69
    L 35 60
    L 32 61
    L 30 53
    L 28 54
    L 26 47
    L 24 48
    L 23 43
    L 24 38
    L 23 35
    L 26 35
    L 27 39
    L 29 38
    L 30 42
    L 32 41
    L 33 45
    L 36 44
    L 38 50
    L 41 49
    L 43 54
    L 46 53
    L 47 58
    L 49 57
    L 50 62
    L 51 57
    L 53 58
    L 54 53
    L 57 54
    L 59 49
    L 62 50
    L 64 44
    L 67 45
    L 68 41
    L 70 42
    L 71 38
    L 73 39
    L 74 35
    L 77 35
    L 76 38
    L 77 43
    L 76 48
    L 74 47
    L 72 54
    L 70 53
    L 68 61
    L 65 60
    L 63 69
    L 60 68
    L 57 78
    L 53 77
    Z
  "/>
</svg>
