<svg xmlns="http://www.w3.org/2000/svg" viewBox="0 0 100 100" width="100" height="100">
  <defs>
    <style>
      .branches { fill: #00bcd4; }
      .trunk { fill: #3f51b5; }
      .roots { fill: #283593; }

      @media (prefers-color-scheme: dark) {
        .branches { fill: #4dd0e1; }
        .trunk { fill: #7986cb; }
        .roots { fill: #5c6bc0; }
      }
    </style>
  </defs>

  <!-- Upper tree: Application/interface layer (branches) -->
  <path class="branches" d="
    M 50 45
    C 48 43, 46 41, 44 39
    C 42 37, 40 35, 38 33
    C 36 31, 34 29, 32 28
    C 30 27, 28 26, 26 25
    L 28 23
    C 30 24, 32 25, 34 26
    C 36 27, 38 29, 40 31
    L 42 29
    C 44 27, 46 25, 48 24
    C 50 23, 52 22, 54 21
    L 56 23
    C 54 24, 52 25, 50 26
    L 50 20
    C 50 18, 50 16, 50 14
    C 50 12, 50 10, 50 8
    L 52 8
    C 52 10, 52 12, 52 14
    C 52 16, 52 18, 52 20
    L 52 26
    C 54 25, 56 24, 58 23
    L 60 21
    C 62 22, 64 23, 66 24
    C 68 25, 70 27, 72 29
    L 74 31
    C 76 29, 78 27, 80 26
    C 82 25, 84 24, 86 23
    L 88 25
    C 86 26, 84 27, 82 28
    C 80 29, 78 31, 76 33
    C 74 35, 72 37, 70 39
    C 68 41, 66 43, 64 45
    L 62 47
    C 60 45, 58 44, 56 42
    C 54 40, 52 38, 52 36
    L 52 45
    L 50 45
    L 50 36
    C 50 38, 48 40, 46 42
    C 44 44, 42 45, 40 47
    L 38 45
    Z
  "/>

  <!-- Central trunk: Core system -->
  <rect class="trunk" x="48" y="45" width="4" height="10" rx="0.5"/>

  <!-- Lower roots: Infrastructure/foundation layer (mirror of branches) -->
  <path class="roots" d="
    M 50 55
    C 48 57, 46 59, 44 61
    C 42 63, 40 65, 38 67
    C 36 69, 34 71, 32 72
    C 30 73, 28 74, 26 75
    L 28 77
    C 30 76, 32 75, 34 74
    C 36 73, 38 71, 40 69
    L 42 71
    C 44 73, 46 75, 48 76
    C 50 77, 52 78, 54 79
    L 56 77
    C 54 76, 52 75, 50 74
    L 50 80
    C 50 82, 50 84, 50 86
    C 50 88, 50 90, 50 92
    L 52 92
    C 52 90, 52 88, 52 86
    C 52 84, 52 82, 52 80
    L 52 74
    C 54 75, 56 76, 58 77
    L 60 79
    C 62 78, 64 77, 66 76
    C 68 75, 70 73, 72 71
    L 74 69
    C 76 71, 78 73, 80 74
    C 82 75, 84 76, 86 77
    L 88 75
    C 86 74, 84 73, 82 72
    C 80 71, 78 69, 76 67
    C 74 65, 72 63, 70 61
    C 68 59, 66 57, 64 55
    L 62 53
    C 60 55, 58 56, 56 58
    C 54 60, 52 62, 52 64
    L 52 55
    L 50 55
    L 50 64
    C 50 62, 48 60, 46 58
    C 44 56, 42 55, 40 53
    L 38 55
    Z
  "/>

  <!-- Symmetry indicator: subtle dots at extremities -->
  <circle class="branches" cx="26" cy="25" r="1.5"/>
  <circle class="branches" cx="50" cy="8" r="1.5"/>
  <circle class="branches" cx="88" cy="25" r="1.5"/>

  <circle class="roots" cx="26" cy="75" r="1.5"/>
  <circle class="roots" cx="50" cy="92" r="1.5"/>
  <circle class="roots" cx="88" cy="75" r="1.5"/>
</svg>
